<?xml version="1.0" encoding="UTF-8"?>
<!DOCTYPE svg PUBLIC "-//W3C//DTD SVG 1.1//EN" "http://www.w3.org/Graphics/SVG/1.1/DTD/svg11.dtd">
<!-- Creator: CorelDRAW 2020 (64-Bit) -->
<svg xmlns="http://www.w3.org/2000/svg" xml:space="preserve" width="2480px" height="3508px" version="1.1" style="shape-rendering:geometricPrecision; text-rendering:geometricPrecision; image-rendering:optimizeQuality; fill-rule:evenodd; clip-rule:evenodd"
viewBox="0 0 2480 3507.43"
 xmlns:xlink="http://www.w3.org/1999/xlink"
 xmlns:xodm="http://www.corel.com/coreldraw/odm/2003">
 <defs>
  <style type="text/css">
   <![CDATA[
    .fil1 {fill:none}
    .fil0 {fill:#29AEB3}
   ]]>
  </style>
 </defs>
 <g id="Слой_x0020_1">
  <metadata id="CorelCorpID_0Corel-Layer"/>
  <path class="fil0" d="M693.88 1336.47l248.27 0c31.82,0 57.85,26.03 57.85,57.85l0 84.58 -43.63 0 0 -84.58c0,-7.82 -6.4,-14.22 -14.22,-14.22l-248.27 0c-7.81,0 -14.21,6.4 -14.21,14.22l0 306.15c0,7.82 6.4,14.22 14.21,14.22l248.27 0c7.82,0 14.22,-6.4 14.22,-14.22l0 -34.06 -38.99 0 0 -50.52 38.99 0 23.39 0 20.24 0 0 84.58c0,31.81 -26.03,57.84 -57.85,57.84l-248.27 0c-31.81,0 -57.84,-26.03 -57.84,-57.84l0 -306.15c0,-31.82 26.03,-57.85 57.84,-57.85zm129.15 329.94l62.38 0 0 -50.52 -62.38 0 0 50.52zm-101.78 0l69.46 0 0 -50.52 -69.46 0 0 50.52zm101.78 -89.56l62.38 0 0 -50.51 -62.38 0 0 50.51zm94.35 0l82.62 0 0 -50.51 -82.62 0 0 50.51zm-196.13 0l69.46 0 0 -50.51 -69.46 0 0 50.51zm-6.56 -93.37l206.66 0 0 -50.52 -206.66 0 0 50.52z"/>
  <rect class="fil1" x="562.05" y="1291.42" width="511.93" height="511.93"/>
 </g>
</svg>
